<svg width="0" height="0" class="hidden">
    <symbol xmlns="http://www.w3.org/2000/svg" fill="none" stroke="currentColor" stroke-width="2" stroke-linecap="round" stroke-linejoin="round" viewBox="0 0 24 24" id="check">
      <polyline points="20 6 9 17 4 12"></polyline>
    </symbol>
    <symbol xmlns="http://www.w3.org/2000/svg" fill="none" stroke="currentColor" stroke-width="2" stroke-linecap="round" stroke-linejoin="round" viewBox="0 0 24 24" id="alert-triangle">
      <path d="M10.29 3.86L1.82 18a2 2 0 0 0 1.71 3h16.94a2 2 0 0 0 1.71-3L13.71 3.86a2 2 0 0 0-3.42 0z"></path>
      <line x1="12" y1="9" x2="12" y2="13"></line>
      <line x1="12" y1="17" x2="12.01" y2="17"></line>
    </symbol>
    <symbol xmlns="http://www.w3.org/2000/svg" fill="none" stroke="currentColor" stroke-width="2" stroke-linecap="round" stroke-linejoin="round" viewBox="0 0 24 24" id="alert-circle">
      <circle cx="12" cy="12" r="10"></circle>
      <line x1="12" y1="8" x2="12" y2="12"></line>
      <line x1="12" y1="16" x2="12.01" y2="16"></line>
    </symbol>
    <symbol xmlns="http://www.w3.org/2000/svg" fill="none" stroke="currentColor" stroke-width="2" stroke-linecap="round" stroke-linejoin="round" viewBox="0 0 24 24" id="external-link">
      <path d="M18 13v6a2 2 0 0 1-2 2H5a2 2 0 0 1-2-2V8a2 2 0 0 1 2-2h6"></path><polyline points="15 3 21 3 21 9"></polyline><line x1="10" y1="14" x2="21" y2="3"></line>
    </symbol>
</svg>
