<?xml version="1.0" encoding="utf-8"?>
<!-- Generator: Adobe Illustrator 26.0.3, SVG Export Plug-In . SVG Version: 6.00 Build 0)  -->
<svg version="1.1" id="Capa_1" xmlns="http://www.w3.org/2000/svg" xmlns:xlink="http://www.w3.org/1999/xlink" x="0px" y="0px"
	 viewBox="0 0 99 99" style="enable-background:new 0 0 99 99;" xml:space="preserve">
<style type="text/css">
	.st0{fill-rule:evenodd;clip-rule:evenodd;fill:#FA162D;}
	.st1{fill:#FFFFFF;}
</style>
<path class="st0" d="M89.4,98.6H9.3c-4.8,0-8.8-3.9-8.8-8.8V9.6c0-4.9,3.9-8.8,8.8-8.8h80.1c4.8,0,8.8,3.9,8.8,8.8v80.2
	C98.2,94.7,94.3,98.6,89.4,98.6z"/>
<g>
	<path class="st1" d="M75.2,29.4c-0.3-1.8-2-2.9-3.8-2.5L62.2,29l-2.4,0.4c-3.7,0.6-6.5,1.1-9.4,1.1c-0.2,0-1.4,0-1.8,0
		c-2-0.1-4-0.3-6.5-0.8c0,0-3.3-0.7-3-0.6l-11.9-2.3c-1.8-0.3-3.4,0.9-3.6,2.7c-0.2,1.6,1,3.1,2.6,3.4L37.8,35l3,0.6
		c0.4,0.1,0.6,0.1,0.9,0.2c0.4,0.1,0.8,0.5,0.8,0.9c0,0.2,0,0.4,0,0.5l0,14.9c0,0.1,0,0.2,0,0.2c0,0.7,0,1.4-0.1,2.1l-3.4,26
		c-0.2,1.7,1,3.2,2.7,3.5c0.1,0,0.3,0,0.4,0c1.5,0,2.9-1.1,3-2.7l2.9-22.3C48.5,59,49,59,49.4,59l0,0c0.4,0,0.9,0,1.3-0.1L53,80.8
		c0.2,1.6,1.5,2.8,3.1,2.8c0.1,0,0.2,0,0.4,0c1.7-0.2,2.9-1.7,2.7-3.4l-2.8-26.3c-0.1-0.5-0.1-1.1-0.1-1.7l0,0l0-14.9
		c0-0.1,0-0.2,0-0.2c0-0.5,0.4-0.9,0.8-0.9c1.2-0.2,2.4-0.4,3.8-0.6l2.4-0.5c0.5-0.1,9.4-2.1,9.4-2.1C74.3,32.6,75.4,31.1,75.2,29.4
		z"/>
	<path class="st1" d="M49.8,27.1c3.2,0,5.8-2.6,5.8-5.8s-2.6-5.8-5.8-5.8c-3.2,0-5.8,2.6-5.8,5.8C44,24.5,46.6,27.1,49.8,27.1z"/>
</g>
</svg>
