<?xml version="1.0" encoding="utf-8"?>
<!-- Generator: Adobe Illustrator 26.0.3, SVG Export Plug-In . SVG Version: 6.00 Build 0)  -->
<svg version="1.1" id="Capa_1" xmlns="http://www.w3.org/2000/svg" xmlns:xlink="http://www.w3.org/1999/xlink" x="0px" y="0px"
	 viewBox="0 0 99 99" style="enable-background:new 0 0 99 99;" xml:space="preserve">
<g>
	<path d="M85.9,21.2c-0.4-2.5-2.9-4.1-5.3-3.6l-13,3l-3.4,0.6c-5.2,0.9-9.2,1.5-13.2,1.5c-0.3,0-1.9,0-2.5-0.1
		c-2.8-0.1-5.7-0.4-9.2-1.1c-0.1,0-4.6-0.9-4.2-0.9l-16.7-3.2c-2.5-0.4-4.8,1.2-5.1,3.7c-0.3,2.3,1.4,4.4,3.6,4.8l16.3,3.1l4.3,0.8
		c0.5,0.1,0.9,0.2,1.3,0.3c0.6,0.1,1.1,0.7,1.1,1.3c0,0.3,0,0.5,0,0.8l0.1,20.9c0,0.1,0,0.2,0,0.3c0.1,1,0,1.9-0.2,2.9l-4.7,36.5
		c-0.3,2.4,1.4,4.6,3.7,4.9c0.2,0,0.4,0.1,0.5,0.1c2.1,0,4-1.6,4.3-3.8l4.1-31.3c0.6,0.1,1.2,0.2,1.8,0.2l0,0c0.6,0,1.2-0.1,1.8-0.2
		l3.3,30.8c0.2,2.3,2.1,3.9,4.3,3.9c0.2,0,0.3,0,0.5,0c2.4-0.3,4.1-2.4,3.8-4.8l-4-37c-0.1-0.8-0.1-1.6-0.1-2.4l0,0l-0.1-20.9
		c0-0.1,0-0.2,0-0.3c0-0.7,0.5-1.2,1.2-1.3c1.6-0.2,3.4-0.5,5.3-0.8l3.4-0.7c0.7-0.2,13.2-2.9,13.2-2.9
		C84.7,25.7,86.3,23.5,85.9,21.2z"/>
	<path d="M50.3,18c4.5,0,8.2-3.7,8.2-8.2s-3.7-8.2-8.2-8.2s-8.2,3.7-8.2,8.2C42.1,14.4,45.8,18,50.3,18z"/>
</g>
</svg>
