<?xml version="1.0" encoding="utf-8"?>
<!-- Generator: Adobe Illustrator 26.0.3, SVG Export Plug-In . SVG Version: 6.00 Build 0)  -->
<svg version="1.1" id="Capa_1" xmlns="http://www.w3.org/2000/svg" xmlns:xlink="http://www.w3.org/1999/xlink" x="0px" y="0px"
	 viewBox="0 0 99 99" style="enable-background:new 0 0 99 99;" xml:space="preserve">
<style type="text/css">
	.st0{display:none;}
	.st1{display:inline;}
</style>
<g class="st0">
	<g class="st1">
		<path d="M25.1,15.6c-0.5-0.5-1.1-0.7-1.8-0.7c-0.7,0-1.3,0.3-1.8,0.8c-14.8,16.3-6.8,51.6-5.9,55.1L0.7,85.7
			C0.3,86.2,0,86.8,0,87.5c0,0.7,0.3,1.3,0.7,1.7l9,9c0.5,0.5,1.1,0.7,1.7,0.7c0.6,0,1.3-0.2,1.7-0.7L28,83.3c7.2,1.9,16.3,3,24.3,3
			c9.6,0,22.7-1.5,30.8-8.9c0.5-0.5,0.8-1.1,0.8-1.8c0-0.7-0.2-1.3-0.7-1.8L25.1,15.6z"/>
		<path d="M46.6,30.3c0.5,0.5,1.1,0.7,1.7,0.7s1.3-0.2,1.7-0.7l18.4-18.4c1.3-1.3,2-3,2-4.9c0-1.8-0.7-3.6-2-4.9c-1.3-1.3-3-2-4.9-2
			c-1.8,0-3.6,0.7-4.9,2L40.3,20.6c-1,1-1,2.5,0,3.5L46.6,30.3z"/>
		<path d="M97,30.7c-1.3-1.3-3-2-4.9-2c-1.8,0-3.6,0.7-4.9,2L68.8,49.1c-0.5,0.5-0.7,1.1-0.7,1.7s0.3,1.3,0.7,1.7l6.3,6.3
			c0.5,0.5,1.1,0.7,1.7,0.7c0.6,0,1.3-0.2,1.7-0.7L97,40.4C99.7,37.7,99.7,33.4,97,30.7z"/>
	</g>
</g>
<path d="M49.4,0.6c27,0,48.8,21.9,48.8,48.9c0,27-21.9,48.9-48.8,48.9S0.6,76.5,0.5,49.5c0-13,5.1-25.4,14.3-34.6
	C24,5.7,36.4,0.6,49.4,0.6z M49.1,59.6l-7.1,19.7c-0.4,1-1.1,1.8-2.1,2.3c-2,0.9-4.4,0.1-5.3-1.9c-0.4-1-0.5-2.1-0.1-3.1l5-13.7
	c0.4-1,0.7-2.1,0.9-3.2c0.2-1.1,0.3-2.2,0.4-3.3c0.2-2,0.3-4.2,0.4-6.3s0.2-4.1,0.2-5.8c0.1-2.1-0.5-2.2-2.2-2.6l-0.3-0.1l-14.3-2.7
	c-1-0.2-2-0.8-2.6-1.6c-1.2-1.8-0.8-4.3,1-5.5c0.9-0.6,1.9-0.8,3-0.6l15.4,2.9c0.6,0.1,1.2,0.1,1.8,0.2c1.9,0.3,3.8,0.4,5.7,0.4
	c2.4,0,4.7-0.2,7.1-0.5c0.7-0.1,1.4-0.2,2.1-0.2l14.5-2.7c1-0.2,2.1,0,3,0.6c1.8,1.2,2.3,3.7,1.1,5.5c0,0,0,0,0,0
	c-0.6,0.9-1.5,1.5-2.6,1.7l-13.9,2.6c-0.5,0.1-0.9,0.2-1.2,0.2c-1.4,0.2-2.2,0.4-2.1,2.4c0.1,1.5,0.2,3.3,0.5,5.2
	c0.3,2.2,0.6,4.5,1,6.7c0.2,1.4,0.5,2.5,0.8,3.6c0.3,1.1,0.6,2.2,1.1,3.5l4.9,13.4c0.8,2.1-0.3,4.3-2.4,5.1c-1,0.4-2.1,0.3-3-0.1
	c-1-0.4-1.7-1.3-2.1-2.3l-7.1-19.6l-0.8-1.5L49.1,59.6L49.1,59.6z M49.4,17c3.9,0,7,3.1,7,7c0,3.9-3.1,7-7,7c-3.9,0-7-3.1-7-7
	c0-1.9,0.7-3.7,2.1-5C45.7,17.8,47.5,17,49.4,17z M78.3,20.6c-15.9-16-41.8-16-57.8-0.1s-16,41.9-0.1,57.9s41.8,16,57.8,0.1
	c7.7-7.7,12-18.1,12-28.9C90.2,38.6,85.9,28.2,78.3,20.6z"/>
</svg>
